<?xml version="1.0" standalone="no"?>
<!DOCTYPE svg PUBLIC "-//W3C//DTD SVG 20010904//EN"
 "http://www.w3.org/TR/2001/REC-SVG-20010904/DTD/svg10.dtd">
<svg version="1.0" xmlns="http://www.w3.org/2000/svg"
 width="1024.000000pt" height="1024.000000pt" viewBox="0 0 1024.000000 1024.000000"
 preserveAspectRatio="xMidYMid meet">

<g transform="translate(0.000000,1024.000000) scale(0.100000,-0.100000)"
fill="#000000" stroke="none">
<path d="M0 5120 l0 -5120 5120 0 5120 0 0 5120 0 5120 -5120 0 -5120 0 0
-5120z m2528 3429 l32 -11 2 -2171 3 -2171 115 -49 c381 -159 845 -382 1150
-552 325 -182 643 -412 863 -625 203 -196 331 -366 452 -603 33 -64 62 -117
65 -116 3 0 25 43 50 97 141 303 447 653 802 915 390 288 810 523 1488 833
l245 112 3 2160 c2 1900 4 2161 17 2172 19 16 92 15 111 -1 12 -10 14 -315 12
-2217 l-3 -2206 -110 -48 c-688 -301 -1210 -580 -1575 -841 -391 -280 -693
-609 -837 -914 -48 -101 -52 -133 -7 -61 46 73 178 240 277 349 108 118 260
256 401 364 386 294 1081 682 1794 1000 l152 68 0 2023 c0 2254 -7 2054 70
2054 77 0 70 206 68 -2097 l-3 -2065 -35 -19 c-19 -11 -107 -51 -195 -90 -621
-276 -1307 -652 -1685 -924 -295 -211 -529 -454 -670 -693 -47 -80 -49 -104
-4 -45 105 139 338 363 516 497 372 281 1207 744 2041 1131 l127 60 0 1907 c0
1895 0 1908 20 1928 24 24 67 26 98 4 21 -15 22 -20 22 -205 l0 -189 34 0 c19
0 41 -3 50 -6 15 -6 16 -187 16 -1956 0 -2106 3 -1975 -52 -2024 -12 -12 -120
-72 -238 -134 -1113 -586 -1924 -1088 -2400 -1485 -58 -48 -127 -98 -155 -111
l-50 -24 -405 0 c-476 0 -443 -7 -600 130 -427 371 -1312 915 -2415 1480 -257
132 -267 139 -289 184 -14 30 -16 213 -16 1981 -1 1572 2 1950 12 1957 7 4 28
8 46 8 l32 0 0 189 c0 185 1 190 22 205 26 18 61 20 89 6 19 -11 19 -43 19
-1925 l0 -1915 23 -14 c12 -9 81 -42 152 -74 646 -293 1130 -541 1659 -850
408 -238 579 -369 797 -608 62 -68 114 -122 117 -120 7 8 -88 148 -164 243
-94 115 -260 275 -392 376 -323 247 -1028 640 -1627 906 -115 51 -270 120
-342 154 l-133 60 0 2071 c0 1598 3 2075 12 2084 16 16 100 16 116 0 9 -9 12
-476 12 -2041 l0 -2028 48 -21 c916 -402 1594 -768 2006 -1081 224 -171 459
-418 602 -634 30 -46 56 -83 59 -83 17 0 -105 231 -182 347 -288 429 -919 873
-1823 1283 -134 61 -565 244 -597 254 l-23 7 0 2214 0 2214 22 15 c27 19 44
20 86 5z m3077 -1359 c508 -28 876 -221 1147 -601 87 -122 180 -309 214 -429
35 -129 45 -347 20 -470 -54 -262 -205 -452 -465 -580 -152 -75 -298 -108
-521 -118 l-145 -7 -17 -95 c-21 -118 -22 -140 -4 -140 8 0 26 -14 40 -31 32
-38 35 -95 6 -126 l-20 -22 54 -88 c125 -206 236 -404 236 -420 0 -24 -10 -38
-37 -52 -35 -18 -69 2 -97 57 -42 83 -166 292 -229 387 -113 170 -389 491
-545 633 l-88 80 -39 -24 c-143 -86 -408 -112 -593 -59 -158 46 -312 163 -369
280 l-14 30 -152 0 c-165 0 -212 10 -315 63 -146 76 -260 221 -291 370 -76
363 186 797 635 1055 300 172 730 285 1164 306 223 11 248 11 425 1z"/>
<path d="M8045 3607 c-872 -413 -1638 -849 -1955 -1113 -138 -114 -315 -307
-386 -419 -13 -22 -1 -14 46 29 377 346 1169 823 2408 1451 180 92 192 99 192
125 0 32 -9 60 -19 60 -3 0 -132 -60 -286 -133z"/>
<path d="M2025 3694 c-3 -20 -3 -40 2 -44 4 -5 195 -101 423 -215 1093 -546
1849 -997 2215 -1321 32 -29 61 -51 63 -49 12 11 -109 165 -218 279 -144 149
-259 235 -570 423 -348 210 -790 447 -1230 658 -267 128 -655 305 -670 305 -4
0 -11 -16 -15 -36z"/>
<path d="M2033 3454 c-8 -21 -6 -22 142 -99 862 -450 1462 -793 1904 -1087
180 -120 243 -164 431 -298 92 -66 90 -65 90 -33 0 54 -183 211 -465 397 -490
324 -1151 688 -1910 1051 -184 88 -184 88 -192 69z"/>
<path d="M8033 3330 c-823 -413 -1692 -925 -2027 -1195 -91 -73 -206 -187
-206 -205 0 -28 33 -12 138 67 385 292 1244 817 1962 1199 433 230 435 231
438 253 2 13 -2 21 -12 21 -8 0 -140 -63 -293 -140z"/>
<path d="M5100 2037 c-100 -45 -224 -110 -301 -159 -78 -48 -86 -101 -22 -144
26 -18 54 -19 383 -22 195 -2 374 0 397 3 80 12 127 79 91 128 -16 20 -270
170 -355 208 -35 16 -71 29 -80 29 -10 0 -61 -19 -113 -43z"/>
<path d="M5271 7072 c-80 -3 -83 -4 -77 -25 3 -12 6 -30 6 -39 0 -13 8 -18 30
-18 17 0 44 -7 61 -16 30 -15 31 -14 79 26 28 23 50 48 50 55 0 16 -41 21
-149 17z"/>
<path d="M4980 7050 c-74 -10 -169 -25 -210 -34 -41 -9 -79 -16 -83 -16 -8 0
-1 -286 9 -387 5 -47 9 -54 31 -59 14 -4 32 -3 39 2 7 5 92 69 188 142 l176
134 0 43 c0 32 7 51 26 74 25 30 25 32 12 73 -10 29 -21 44 -34 45 -10 1 -80
-7 -154 -17z"/>
<path d="M5573 7034 c-25 -27 -39 -34 -70 -34 -21 0 -44 4 -52 9 -10 7 -29 -3
-66 -35 -44 -39 -51 -49 -47 -75 13 -87 -74 -149 -152 -110 l-37 19 -179 -134
c-99 -75 -183 -141 -187 -147 -5 -7 -8 -35 -8 -64 0 -44 -5 -56 -29 -82 -17
-17 -36 -31 -43 -31 -15 0 -17 -83 -6 -278 4 -89 10 -122 19 -122 24 0 54 -51
54 -92 0 -41 -34 -88 -64 -88 -18 0 -23 -27 -30 -163 -7 -126 0 -130 97 -49
72 59 72 60 72 109 0 63 23 99 74 114 74 22 137 -31 135 -115 l-1 -41 138 -90
c78 -51 146 -88 156 -86 10 2 39 5 65 8 l46 5 7 84 c7 82 7 85 -18 104 -53 42
-56 130 -7 175 13 11 17 22 11 29 -5 6 -27 45 -49 86 -130 241 -146 264 -182
271 -70 11 -100 41 -100 99 0 65 43 109 106 110 26 0 50 -7 66 -19 l25 -20 80
42 c79 40 82 43 88 84 12 79 95 115 163 71 l37 -25 95 51 c77 41 96 56 98 76
5 46 23 76 53 94 26 16 30 23 25 47 -3 16 -9 66 -12 110 -6 72 -9 82 -30 89
-33 13 -178 38 -249 43 -58 5 -61 3 -92 -29z"/>
<path d="M5975 6918 c8 -101 18 -138 38 -138 7 0 24 -12 38 -26 33 -35 34
-102 0 -138 l-23 -25 16 -140 c9 -78 16 -148 16 -157 0 -8 13 -20 29 -25 27
-9 36 -24 55 -81 3 -10 13 -18 23 -18 39 0 396 -31 403 -35 3 -2 15 12 25 31
23 43 61 64 116 64 36 0 48 -6 81 -41 21 -22 43 -39 48 -37 26 9 -103 258
-203 389 -94 125 -83 116 -110 91 -13 -12 -28 -22 -35 -22 -6 0 -14 -15 -17
-34 -8 -38 -47 -80 -84 -89 -31 -8 -84 15 -105 44 -30 43 -15 108 34 146 29
23 87 15 122 -16 30 -27 34 -28 55 -14 13 9 23 21 23 28 0 31 -207 188 -330
250 -47 24 -204 85 -218 85 -2 0 -1 -41 3 -92z"/>
<path d="M4615 6985 c-5 -2 -71 -22 -145 -45 -205 -64 -449 -181 -560 -269
l-25 -20 23 -45 c22 -41 26 -44 57 -39 21 3 41 -1 59 -12 26 -17 27 -17 99 26
71 44 72 45 78 94 8 65 14 78 48 98 89 52 194 -41 147 -130 -17 -34 -56 -63
-84 -63 -18 0 -21 -13 -31 -132 -7 -73 -13 -143 -15 -154 -2 -16 6 -26 29 -37
41 -20 61 -66 49 -114 -12 -47 -52 -77 -105 -77 -39 -1 -45 -6 -115 -86 -77
-88 -80 -94 -65 -132 l9 -23 193 11 c107 7 222 15 257 19 61 7 63 8 78 45 11
27 25 42 45 49 34 12 34 12 22 259 -5 111 -9 142 -20 142 -48 0 -98 74 -87
129 7 35 65 91 93 91 17 0 18 8 14 98 -12 325 -13 329 -48 317z"/>
<path d="M3769 6543 c-86 -88 -140 -161 -197 -263 -43 -78 -48 -100 -24 -100
12 0 22 9 26 23 18 71 112 93 167 38 31 -31 37 -68 20 -114 -8 -22 0 -38 61
-125 64 -90 73 -100 91 -90 11 6 40 8 66 5 44 -5 47 -3 86 41 22 25 55 64 73
87 32 42 32 42 17 79 -10 22 -14 50 -10 66 6 28 48 74 75 82 11 4 18 34 27
129 17 183 16 197 -7 204 -13 4 -42 -9 -95 -45 -75 -50 -75 -51 -75 -96 0 -63
-32 -94 -95 -94 -62 0 -95 32 -95 90 0 22 7 52 16 65 15 23 14 26 -5 54 -12
16 -21 34 -21 40 0 23 -19 9 -101 -76z"/>
<path d="M5793 6577 c-87 -48 -91 -53 -97 -90 -10 -58 -23 -76 -70 -96 l-42
-18 -18 -204 c-25 -280 -26 -322 -3 -327 18 -4 36 10 275 207 97 81 102 86
102 123 0 52 15 77 56 94 41 17 41 20 17 191 l-16 121 -32 6 c-18 4 -40 15
-50 26 -10 11 -21 20 -24 19 -3 0 -47 -23 -98 -52z"/>
<path d="M5403 6390 l-73 -41 0 -43 c0 -31 -6 -48 -21 -62 -27 -24 -22 -40 49
-166 32 -57 74 -131 92 -165 18 -35 39 -63 46 -63 8 0 14 21 18 63 3 34 13
143 21 242 9 99 17 190 19 203 2 16 -5 27 -25 39 -16 10 -29 21 -29 25 0 16
-26 7 -97 -32z"/>
<path d="M3506 6125 c-3 -8 -10 -52 -17 -98 -21 -152 18 -277 118 -374 30 -29
59 -53 64 -53 6 0 50 34 98 74 l88 75 -5 50 c-3 32 0 56 8 66 10 12 -1 32 -61
115 -72 99 -72 100 -108 94 -47 -7 -88 9 -103 41 -9 19 -19 25 -44 25 -19 0
-34 -6 -38 -15z"/>
<path d="M6114 6105 c-25 -28 -38 -35 -69 -35 -20 0 -49 8 -63 19 l-27 19
-150 -125 c-216 -179 -207 -170 -195 -193 15 -27 12 -76 -5 -110 -9 -17 -17
-30 -18 -30 -1 0 -20 -7 -42 -14 l-40 -14 -11 -89 c-10 -81 -10 -91 9 -121 23
-39 18 -93 -12 -126 -16 -18 -18 -29 -11 -80 5 -32 12 -62 17 -67 24 -24 485
-38 633 -19 159 21 326 80 453 162 l48 31 -20 21 c-12 12 -24 36 -27 54 l-6
32 -272 0 -271 0 -16 -39 c-37 -88 -177 -71 -195 23 -15 81 60 150 137 127
l37 -11 89 84 c88 84 88 84 88 134 0 42 5 56 29 81 24 25 38 31 71 31 23 0 50
-6 60 -14 17 -12 29 -4 137 93 118 105 126 117 112 167 -5 19 -15 21 -132 28
-70 3 -167 8 -217 11 l-90 6 -31 -36z"/>
<path d="M6824 6103 c-17 -57 -37 -85 -69 -100 -25 -12 -35 -23 -35 -39 0 -33
-19 -320 -25 -382 -5 -50 -4 -53 22 -63 16 -6 35 -17 44 -25 14 -13 18 -12 31
8 87 140 121 379 78 566 -12 53 -35 70 -46 35z"/>
<path d="M6542 5953 c-42 -36 -98 -86 -123 -111 -42 -39 -46 -47 -39 -73 5
-15 6 -38 3 -49 -4 -15 1 -26 16 -36 12 -9 64 -51 116 -95 91 -76 126 -92 141
-68 6 10 32 343 34 426 0 25 -7 35 -35 52 l-35 20 -78 -66z"/>
<path d="M4355 5815 c-104 -7 -211 -14 -238 -14 -40 -1 -49 -5 -57 -25 -14
-38 -58 -66 -104 -66 -22 0 -47 4 -55 9 -16 10 -96 -47 -160 -113 l-33 -34 29
-15 c87 -46 270 -61 388 -32 75 18 85 18 85 3 0 -22 56 -124 91 -168 55 -68
183 -145 275 -164 l32 -7 7 58 c5 44 4 58 -7 62 -7 2 -28 19 -45 37 -35 34
-41 65 -22 106 12 27 74 72 87 64 15 -9 22 46 22 160 0 94 -2 103 -20 109 -11
3 -25 15 -30 26 -6 11 -20 18 -33 18 -12 -1 -107 -7 -212 -14z"/>
<path d="M6340 5665 c-20 -24 -79 -30 -110 -11 l-28 16 -85 -78 c-89 -80 -102
-98 -91 -126 5 -14 36 -16 284 -16 250 0 278 2 284 17 4 9 3 19 -1 23 -34 30
-233 190 -237 190 -2 0 -9 -7 -16 -15z"/>
<path d="M4803 5543 l-68 -56 0 -71 -1 -71 80 -78 c73 -72 82 -78 111 -73 44
9 164 68 203 101 l32 27 36 -28 c19 -16 48 -38 64 -50 16 -12 42 -33 59 -47
25 -20 117 -57 145 -57 3 0 1 12 -4 28 -4 15 -11 39 -14 53 -5 21 -14 28 -42
33 -19 4 -41 9 -47 12 -7 2 -17 -6 -22 -18 -6 -12 -16 -23 -22 -26 -18 -5 -16
33 1 50 10 11 11 19 4 32 -6 10 -8 40 -6 66 l5 47 -129 84 c-71 46 -135 88
-142 93 -9 6 -26 4 -49 -7 -43 -21 -64 -21 -99 -3 -26 14 -30 13 -95 -41z"/>
<path d="M4662 5311 c-8 -5 -16 -35 -19 -70 l-6 -61 102 0 c55 0 101 4 101 8
0 4 -28 36 -63 70 -60 60 -86 72 -115 53z"/>
<path d="M5586 4898 c55 -63 110 -127 122 -143 22 -28 24 -29 50 -13 28 17 39
56 57 194 l6 51 -103 7 c-57 4 -132 9 -167 13 l-64 6 99 -115z"/>
</g>
</svg>
